<svg width="21" height="22" viewBox="0 0 21 22" fill="none" xmlns="http://www.w3.org/2000/svg">
<g id="Bag">
<path id="Path_33955" fill-rule="evenodd" clip-rule="evenodd" d="M14.5136 20.5H6.16579C3.09943 20.5 0.74703 19.3924 1.41522 14.9348L2.19325 8.89357C2.60515 6.66931 4.02392 5.81805 5.26877 5.81805H15.4473C16.7104 5.81805 18.0468 6.73339 18.5228 8.89357L19.3008 14.9348C19.8683 18.889 17.58 20.5 14.5136 20.5Z" stroke="white" stroke-width="2" stroke-linecap="round" stroke-linejoin="round"/>
<path id="Path_33956" d="M14.651 5.59839C14.651 3.21232 12.7167 1.27802 10.3306 1.27802V1.27802C9.18162 1.27315 8.078 1.72618 7.26381 2.53694C6.44963 3.34769 5.99193 4.44938 5.99194 5.59839H5.99194" stroke="white" stroke-width="2" stroke-linecap="round" stroke-linejoin="round"/>
<path id="Line_192" d="M13.2962 10.1018H13.2505" stroke="white" stroke-width="2" stroke-linecap="round" stroke-linejoin="round"/>
<path id="Line_193" d="M7.46566 10.1018H7.41989" stroke="white" stroke-width="2" stroke-linecap="round" stroke-linejoin="round"/>
</g>
</svg>
