<svg width="17" height="15" viewBox="0 0 17 15" fill="none" xmlns="http://www.w3.org/2000/svg">
<g id="edit icon">
<path id="Vector" d="M0.500977 3.23397C0.500977 2.52685 0.781885 1.84868 1.28191 1.34867C1.78193 0.848654 2.4601 0.567749 3.16723 0.567749H12.7658C13.4729 0.567749 14.1511 0.848654 14.6511 1.34867C15.1511 1.84868 15.432 2.52685 15.432 3.23397V3.91013C15.0875 3.80119 14.7265 3.75389 14.3655 3.77042V3.23397C14.3655 2.8097 14.197 2.4028 13.897 2.10279C13.5969 1.80278 13.19 1.63424 12.7658 1.63424H3.16723C2.74295 1.63424 2.33605 1.80278 2.03604 2.10279C1.73602 2.4028 1.56748 2.8097 1.56748 3.23397V8.56642C1.56748 8.99069 1.73602 9.39759 2.03604 9.6976C2.33605 9.99761 2.74295 10.1662 3.16723 10.1662H4.76699V13.2568L6.12678 12.0677L5.89428 12.9955C5.83355 13.2351 5.81729 13.4838 5.84629 13.7293L5.43355 14.0908C5.2824 14.223 5.09638 14.3088 4.89775 14.338C4.69912 14.3672 4.49627 14.3386 4.31347 14.2556C4.13067 14.1726 3.97565 14.0386 3.86694 13.8699C3.75824 13.7011 3.70045 13.5045 3.70049 13.3038V11.2326H3.16723C2.4601 11.2326 1.78193 10.9517 1.28191 10.4517C0.781885 9.95171 0.500977 9.27354 0.500977 8.56642V3.23397ZM7.94517 10.5682L13.0964 5.41708C13.4706 5.04315 13.978 4.83319 14.5071 4.83339C15.0361 4.83359 15.5433 5.04393 15.9173 5.41814C16.2912 5.79235 16.5012 6.29978 16.501 6.82879C16.5008 7.35781 16.2904 7.86508 15.9162 8.23901L10.765 13.3891C10.4649 13.6893 10.0889 13.9024 9.67717 14.0055L8.07955 14.4044C7.92069 14.444 7.75429 14.4418 7.59652 14.3981C7.43875 14.3543 7.29498 14.2706 7.17916 14.1549C7.06334 14.0391 6.97942 13.8954 6.93555 13.7377C6.89168 13.58 6.88935 13.4136 6.92879 13.2547L7.32873 11.6571C7.43102 11.245 7.64421 10.8688 7.94517 10.5693" fill="#1F1F1F"/>
</g>
</svg>
