<svg width="24" height="24" viewBox="0 0 24 24" fill="none" xmlns="http://www.w3.org/2000/svg">
<g id="fluent:globe-location-24-regular">
<path id="Vector" d="M12 1.99799C17.524 1.99799 22.002 6.47599 22.002 12C22.002 12.391 21.979 12.777 21.935 13.157C21.5175 12.729 21.0332 12.3716 20.501 12.099V12C20.501 11.311 20.42 10.641 20.265 9.99999H16.907C16.957 10.518 16.987 11.05 16.997 11.591C16.4763 11.6869 15.9724 11.858 15.501 12.099V12C15.501 11.309 15.465 10.64 15.397 9.99899H8.603C8.42709 11.6643 8.47249 13.3456 8.738 14.999H12.875C12.6874 15.4798 12.5689 15.9849 12.523 16.499H9.06C9.712 18.914 10.846 20.501 12 20.501C12.454 20.501 12.906 20.254 13.326 19.807C13.687 20.423 14.158 21.029 14.725 21.625C13.858 21.87 12.944 22.001 11.999 22.001C6.476 22.001 2 17.523 2 12C1.999 6.47599 6.476 1.99799 12 1.99799ZM7.508 16.5H4.786C5.75166 18.0445 7.18631 19.2395 8.88 19.91C8.358 19.09 7.927 18.064 7.61 16.895L7.508 16.5ZM7.094 9.99899H3.736L3.731 10.016C3.57651 10.666 3.49897 11.3319 3.5 12C3.4986 13.0246 3.68291 14.0411 4.044 15H7.217C7.07058 14.0067 6.99805 13.004 7 12C7 11.316 7.031 10.646 7.094 9.99899ZM8.882 4.08899L8.859 4.09699C6.81148 4.91401 5.15973 6.49194 4.25 8.49999H7.298C7.612 6.74799 8.158 5.22199 8.881 4.08999M12.001 3.49899L11.884 3.50399C10.62 3.61999 9.397 5.62099 8.83 8.49999H15.172C14.606 5.62999 13.389 3.63099 12.127 3.50499L12 3.49799M15.12 4.08799L15.226 4.26299C15.896 5.37499 16.403 6.83499 16.701 8.49999H19.749C18.8809 6.58407 17.3357 5.05632 15.41 4.20999L15.12 4.08899M22.5 17C22.5 15.8065 22.0259 14.6619 21.182 13.818C20.3381 12.9741 19.1935 12.5 18 12.5C16.8065 12.5 15.6619 12.9741 14.818 13.818C13.9741 14.6619 13.5 15.8065 13.5 17C13.5 18.863 14.919 20.815 17.7 22.9C17.7865 22.9649 17.8918 23 18 23C18.1082 23 18.2135 22.9649 18.3 22.9C21.08 20.815 22.5 18.863 22.5 17ZM16.5 17C16.4948 16.7998 16.5298 16.6006 16.6028 16.4142C16.6759 16.2277 16.7855 16.0578 16.9252 15.9144C17.065 15.771 17.232 15.657 17.4165 15.5792C17.601 15.5014 17.7993 15.4613 17.9995 15.4613C18.1997 15.4613 18.398 15.5014 18.5825 15.5792C18.767 15.657 18.934 15.771 19.0738 15.9144C19.2135 16.0578 19.3231 16.2277 19.3962 16.4142C19.4692 16.6006 19.5042 16.7998 19.499 17C19.499 17.3978 19.341 17.7793 19.0597 18.0606C18.7784 18.342 18.3968 18.5 17.999 18.5C17.6012 18.5 17.2196 18.342 16.9383 18.0606C16.657 17.7793 16.5 17.3978 16.5 17Z" fill="#757575"/>
</g>
</svg>
